<?xml version="1.0" encoding="UTF-8"?>
<!-- Generated by Pixelmator Pro 4.0 -->
<svg width="239" height="252" viewBox="0 0 239 252" xmlns="http://www.w3.org/2000/svg">
    <g id="Group-copy">
        <path id="Path" fill="#126ceb" stroke="none" d="M 11.41 6.460007 C 11.41 9.033646 9.323647 11.119995 6.75 11.119995 C 4.176353 11.119995 2.09 9.033646 2.09 6.460007 C 2.09 3.886353 4.176353 1.800003 6.75 1.800003 C 9.323647 1.800003 11.41 3.886353 11.41 6.460007 Z"/>
        <path id="path1" fill="#126ceb" stroke="none" d="M 30.349998 6.419998 C 30.349998 9.021255 28.241261 11.130005 25.639999 11.130005 C 23.038738 11.130005 20.93 9.021255 20.93 6.419998 C 20.93 3.818741 23.038738 1.710007 25.639999 1.710007 C 28.241261 1.710007 30.349998 3.818741 30.349998 6.419998 Z"/>
        <path id="path2" fill="#126ceb" stroke="none" d="M 40.749535 3.677368 C 42.2458 1.556259 45.218494 1.07814 47.389233 2.609421 C 49.559967 4.140701 50.106735 7.101547 48.610466 9.222641 C 47.114201 11.343735 44.141506 11.821869 41.970768 10.290588 C 39.80003 8.759293 39.253265 5.798462 40.749535 3.677368 Z"/>
        <path id="path3" fill="#126ceb" stroke="none" d="M 216.309998 6.5 C 216.309998 9.128876 214.178879 11.259995 211.550003 11.259995 C 208.921127 11.259995 206.789993 9.128876 206.789993 6.5 C 206.789993 3.871124 208.921127 1.740005 211.550003 1.740005 C 214.178879 1.740005 216.309998 3.871124 216.309998 6.5 Z"/>
        <path id="path4" fill="#126ceb" stroke="none" d="M 235.080002 6.529999 C 235.080002 9.087082 233.00708 11.160004 230.449997 11.160004 C 227.892929 11.160004 225.820007 9.087082 225.820007 6.529999 C 225.820007 3.972916 227.892929 1.899994 230.449997 1.899994 C 233.00708 1.899994 235.080002 3.972916 235.080002 6.529999 Z"/>
        <path id="path5" fill="#126ceb" stroke="none" d="M 197.350006 6.5 C 197.350006 9.062607 195.272598 11.139999 192.710007 11.139999 C 190.1474 11.139999 188.070007 9.062607 188.070007 6.5 C 188.070007 3.937393 190.1474 1.860001 192.710007 1.860001 C 195.272598 1.860001 197.350006 3.937393 197.350006 6.5 Z"/>
        <path id="path6" fill="#126ceb" stroke="none" d="M 20.57 18.419998 C 20.57 21.021255 18.461262 23.130005 15.860001 23.130005 C 13.258739 23.130005 11.15 21.021255 11.15 18.419998 C 11.15 15.818741 13.258739 13.710007 15.860001 13.710007 C 18.461262 13.710007 20.57 15.818741 20.57 18.419998 Z"/>
        <path id="path7" fill="#126ceb" stroke="none" d="M 39.619999 18.369995 C 39.619999 20.954697 37.524693 23.050003 34.939999 23.050003 C 32.355309 23.050003 30.259998 20.954697 30.259998 18.369995 C 30.259998 15.785309 32.355309 13.690002 34.939999 13.690002 C 37.524693 13.690002 39.619999 15.785309 39.619999 18.369995 Z"/>
        <path id="path8" fill="#126ceb" stroke="none" d="M 58.660004 18.389999 C 58.660004 20.980209 56.560219 23.080002 53.970001 23.080002 C 51.379784 23.080002 49.279999 20.980209 49.279999 18.389999 C 49.279999 15.799789 51.379784 13.699997 53.970001 13.699997 C 56.560219 13.699997 58.660004 15.799789 58.660004 18.389999 Z"/>
        <path id="path9" fill="#126ceb" stroke="none" d="M 187.820007 18.389999 C 187.820007 20.985733 185.715744 23.089996 183.119995 23.089996 C 180.524261 23.089996 178.419998 20.985733 178.419998 18.389999 C 178.419998 15.794266 180.524261 13.690002 183.119995 13.690002 C 185.715744 13.690002 187.820007 15.794266 187.820007 18.389999 Z"/>
        <path id="path10" fill="#126ceb" stroke="none" d="M 207.139999 18.369995 C 207.139999 20.987823 205.017822 23.110001 202.399994 23.110001 C 199.782166 23.110001 197.660004 20.987823 197.660004 18.369995 C 197.660004 15.752167 199.782166 13.630005 202.399994 13.630005 C 205.017822 13.630005 207.139999 15.752167 207.139999 18.369995 Z"/>
        <path id="path11" fill="#126ceb" stroke="none" d="M 226.100006 18.389999 C 226.100006 20.99678 223.986786 23.110001 221.380005 23.110001 C 218.773209 23.110001 216.660004 20.99678 216.660004 18.389999 C 216.660004 15.783218 218.773209 13.669998 221.380005 13.669998 C 223.986786 13.669998 226.100006 15.783218 226.100006 18.389999 Z"/>
        <path id="path12" fill="#126ceb" stroke="none" d="M 29.970001 30.089996 C 29.970001 32.718872 27.838875 34.850006 25.209999 34.850006 C 22.581125 34.850006 20.450001 32.718872 20.450001 30.089996 C 20.450001 27.461121 22.581125 25.330002 25.209999 25.330002 C 27.838875 25.330002 29.970001 27.461121 29.970001 30.089996 Z"/>
        <path id="path13" fill="#126ceb" stroke="none" d="M 49.040001 30.020004 C 49.040001 32.659912 46.899921 34.800003 44.259998 34.800003 C 41.620079 34.800003 39.48 32.659912 39.48 30.020004 C 39.48 27.380081 41.620079 25.240005 44.259998 25.240005 C 46.899921 25.240005 49.040001 27.380081 49.040001 30.020004 Z"/>
        <path id="path14" fill="#126ceb" stroke="none" d="M 68.040001 30.020004 C 68.040001 32.643356 65.913353 34.770004 63.290001 34.770004 C 60.666649 34.770004 58.540001 32.643356 58.540001 30.020004 C 58.540001 27.396652 60.666649 25.270004 63.290001 25.270004 C 65.913353 25.270004 68.040001 27.396652 68.040001 30.020004 Z"/>
        <path id="path15" fill="#126ceb" stroke="none" d="M 178.610001 30.100006 C 178.610001 32.673645 176.523651 34.759995 173.949997 34.759995 C 171.376358 34.759995 169.289993 32.673645 169.289993 30.100006 C 169.289993 27.526352 171.376358 25.440002 173.949997 25.440002 C 176.523651 25.440002 178.610001 27.526352 178.610001 30.100006 Z"/>
        <path id="path16" fill="#126ceb" stroke="none" d="M 197.809998 30.149994 C 197.809998 32.789917 195.669922 34.929993 193.029999 34.929993 C 190.390076 34.929993 188.25 32.789917 188.25 30.149994 C 188.25 27.510071 190.390076 25.369995 193.029999 25.369995 C 195.669922 25.369995 197.809998 27.510071 197.809998 30.149994 Z"/>
        <path id="path17" fill="#126ceb" stroke="none" d="M 216.820007 30.130005 C 216.820007 32.753357 214.693359 34.880005 212.070007 34.880005 C 209.44664 34.880005 207.320007 32.753357 207.320007 30.130005 C 207.320007 27.506653 209.44664 25.380005 212.070007 25.380005 C 214.693359 25.380005 216.820007 27.506653 216.820007 30.130005 Z"/>
        <path id="path18" fill="#126ceb" stroke="none" d="M 39.27 41.869995 C 39.27 44.465744 37.165737 46.570007 34.57 46.570007 C 31.974262 46.570007 29.869999 44.465744 29.869999 41.869995 C 29.869999 39.274261 31.974262 37.169998 34.57 37.169998 C 37.165737 37.169998 39.27 39.274261 39.27 41.869995 Z"/>
        <path id="path19" fill="#126ceb" stroke="none" d="M 58.169998 41.869995 C 58.169998 44.443649 56.083649 46.529999 53.509998 46.529999 C 50.936352 46.529999 48.849998 44.443649 48.849998 41.869995 C 48.849998 39.296356 50.936352 37.209991 53.509998 37.209991 C 56.083649 37.209991 58.169998 39.296356 58.169998 41.869995 Z"/>
        <path id="path20" fill="#126ceb" stroke="none" d="M 77.239998 41.860001 C 77.239998 44.499924 75.099922 46.639999 72.459999 46.639999 C 69.820076 46.639999 67.68 44.499924 67.68 41.860001 C 67.68 39.220078 69.820076 37.080002 72.459999 37.080002 C 75.099922 37.080002 77.239998 39.220078 77.239998 41.860001 Z"/>
        <path id="path21" fill="#126ceb" stroke="none" d="M 169.460007 41.860001 C 169.460007 44.433655 167.373642 46.520004 164.800003 46.520004 C 162.226349 46.520004 160.139999 44.433655 160.139999 41.860001 C 160.139999 39.286346 162.226349 37.199997 164.800003 37.199997 C 167.373642 37.199997 169.460007 39.286346 169.460007 41.860001 Z"/>
        <path id="path22" fill="#126ceb" stroke="none" d="M 188.190002 41.889999 C 188.190002 44.45813 186.108124 46.540009 183.539993 46.540009 C 180.971878 46.540009 178.889999 44.45813 178.889999 41.889999 C 178.889999 39.321869 180.971878 37.240005 183.539993 37.240005 C 186.108124 37.240005 188.190002 39.321869 188.190002 41.889999 Z"/>
        <path id="path23" fill="#126ceb" stroke="none" d="M 207.600006 41.949997 C 207.600006 44.562302 205.4823 46.679993 202.869995 46.679993 C 200.25769 46.679993 198.139999 44.562302 198.139999 41.949997 C 198.139999 39.337692 200.25769 37.220001 202.869995 37.220001 C 205.4823 37.220001 207.600006 39.337692 207.600006 41.949997 Z"/>
        <path id="path24" fill="#126ceb" stroke="none" d="M 48.68 53.820007 C 48.68 56.498581 46.508579 58.669998 43.830002 58.669998 C 41.151421 58.669998 38.98 56.498581 38.98 53.820007 C 38.98 51.141418 41.151421 48.970001 43.830002 48.970001 C 46.508579 48.970001 48.68 51.141418 48.68 53.820007 Z"/>
        <path id="path25" fill="#126ceb" stroke="none" d="M 67.589996 53.809998 C 67.589996 56.438873 65.458878 58.570007 62.830002 58.570007 C 60.201126 58.570007 58.07 56.438873 58.07 53.809998 C 58.07 51.181122 60.201126 49.050003 62.830002 49.050003 C 65.458878 49.050003 67.589996 51.181122 67.589996 53.809998 Z"/>
        <path id="path26" fill="#126ceb" stroke="none" d="M 79.84053 49.350677 C 82.216423 48.347061 84.983932 49.525497 86.021935 51.982788 C 87.059937 54.440079 85.975365 57.245712 83.599472 58.249329 C 81.223572 59.252945 78.456062 58.074509 77.41806 55.617203 C 76.380066 53.159912 77.464638 50.354294 79.84053 49.350677 Z"/>
        <path id="path27" fill="#126ceb" stroke="none" d="M 160.289993 53.809998 C 160.289993 56.455444 158.145447 58.600006 155.5 58.600006 C 152.854553 58.600006 150.710007 56.455444 150.710007 53.809998 C 150.710007 51.164551 152.854553 49.020004 155.5 49.020004 C 158.145447 49.020004 160.289993 51.164551 160.289993 53.809998 Z"/>
        <path id="path28" fill="#126ceb" stroke="none" d="M 179.240005 53.75 C 179.240005 56.384399 177.104401 58.520004 174.470001 58.520004 C 171.835602 58.520004 169.699997 56.384399 169.699997 53.75 C 169.699997 51.115601 171.835602 48.979996 174.470001 48.979996 C 177.104401 48.979996 179.240005 51.115601 179.240005 53.75 Z"/>
        <path id="path29" fill="#126ceb" stroke="none" d="M 198.369995 53.839996 C 198.369995 56.474396 196.234406 58.610001 193.600006 58.610001 C 190.965607 58.610001 188.830002 56.474396 188.830002 53.839996 C 188.830002 51.205597 190.965607 49.070007 193.600006 49.070007 C 196.234406 49.070007 198.369995 51.205597 198.369995 53.839996 Z"/>
        <path id="path30" fill="#126ceb" stroke="none" d="M 146.946091 60.918671 C 149.498886 61.245682 151.296967 63.629074 150.962234 66.242126 C 150.627487 68.855164 148.286682 70.708359 145.733902 70.381332 C 143.181122 70.054321 141.383026 67.670929 141.717773 65.057877 C 142.052505 62.444839 144.393311 60.591644 146.946091 60.918671 Z"/>
        <path id="path31" fill="#126ceb" stroke="none" d="M 57.959999 65.889999 C 57.959999 68.54097 55.810966 70.690002 53.16 70.690002 C 50.509033 70.690002 48.360001 68.54097 48.360001 65.889999 C 48.360001 63.239044 50.509033 61.089996 53.16 61.089996 C 55.810966 61.089996 57.959999 63.239044 57.959999 65.889999 Z"/>
        <path id="path32" fill="#126ceb" stroke="none" d="M 76.639999 65.720001 C 76.639999 68.310211 74.540215 70.410004 71.949997 70.410004 C 69.359787 70.410004 67.260002 68.310211 67.260002 65.720001 C 67.260002 63.129791 69.359787 61.029999 71.949997 61.029999 C 74.540215 61.029999 76.639999 63.129791 76.639999 65.720001 Z"/>
        <path id="path33" fill="#126ceb" stroke="none" d="M 90.135986 61.030243 L 91.250252 60.917053 C 93.530502 60.68544 95.566772 62.346176 95.798393 64.626434 L 95.893387 65.561615 C 96.125008 67.841873 94.464264 69.878143 92.184013 70.109756 L 91.069748 70.222946 C 88.789497 70.454559 86.753227 68.793823 86.521606 66.513565 L 86.426613 65.578384 C 86.195 63.298126 87.855736 61.261856 90.135986 61.030243 Z"/>
        <path id="path34" fill="#126ceb" stroke="none" d="M 170.130005 65.779999 C 170.130005 68.453064 167.963058 70.619995 165.289993 70.619995 C 162.616943 70.619995 160.449997 68.453064 160.449997 65.779999 C 160.449997 63.106934 162.616943 60.940002 165.289993 60.940002 C 167.963058 60.940002 170.130005 63.106934 170.130005 65.779999 Z"/>
        <path id="path35" fill="#126ceb" stroke="none" d="M 189.179993 65.830002 C 189.179993 68.464401 187.044403 70.600006 184.410004 70.600006 C 181.775604 70.600006 179.639999 68.464401 179.639999 65.830002 C 179.639999 63.195602 181.775604 61.059998 184.410004 61.059998 C 187.044403 61.059998 189.179993 63.195602 189.179993 65.830002 Z"/>
        <path id="path36" fill="#126ceb" stroke="none" d="M 190.350006 71.320007 C 191.389999 71.906677 192.433334 72.893341 193.479996 74.279999 C 200.093338 83.026672 203.276672 92.91333 203.029999 103.940002 C 203.003326 104.906677 204.016663 106.833344 206.070007 109.720001 C 209.330002 114.306671 212.366669 118.323334 215.179993 121.769989 C 220.320007 128.059998 216.330002 129.789993 210.970001 132.830002 C 210.510666 133.087204 210.173935 133.518478 210.034912 134.027618 C 209.895874 134.536743 209.966141 135.081375 210.229996 135.539993 L 212.399994 139.289993 C 212.719238 139.840683 212.804825 140.496674 212.637909 141.113678 C 212.471008 141.730667 212.065277 142.258118 211.509995 142.580002 L 209.5 143.740005 C 209.395828 143.803802 209.326538 143.911697 209.31279 144.031525 C 209.299042 144.151352 209.342422 144.269226 209.429993 144.350006 C 212.380005 147.110001 211.080002 149.410004 208.889999 151.710007 C 208.660538 151.958572 208.547745 152.289658 208.580002 152.619995 C 208.806671 154.766663 208.956665 156.226669 209.029999 157 C 210.039993 167.889999 198.009995 167.070007 190.979996 167.139999 C 185.830002 167.190002 182.850006 168.229996 178.610001 170.259995 C 178.459747 170.329697 178.346451 170.460297 178.298691 170.618881 C 178.250916 170.777466 178.273239 170.948914 178.360001 171.089996 C 183.229996 179.240005 172.699997 181.960007 170.830002 176.899994 C 169.550003 173.429993 170.369995 171.169998 174.059998 169.970001 C 175.473328 169.509995 177.596664 168.256668 180.429993 166.210007 C 181.529999 165.410004 184.139999 164.66333 188.259995 163.970001 C 189.353333 163.78334 193.246674 163.436661 199.940002 162.929993 C 202.426666 162.743332 204.026672 161.589996 204.740005 159.470001 C 205.570007 156.990005 204.399994 153.940002 203.940002 151.399994 C 203.852859 150.942795 203.999268 150.473511 204.330002 150.149994 L 206.839996 147.630005 C 207.192871 147.280136 207.333847 146.76944 207.210434 146.288101 C 207.087006 145.806747 206.717682 145.426895 206.240005 145.289993 C 203.759995 144.57666 201.153336 144.360001 198.419998 144.639999 C 198.165039 144.669266 197.931564 144.488647 197.889999 144.229996 L 197.889999 144.220001 C 197.871384 144.073914 197.955002 143.935959 198.089996 143.889999 L 206.770004 140.839996 C 207.22345 140.680725 207.575714 140.317642 207.721191 139.859589 C 207.866669 139.40152 207.788452 138.901718 207.509995 138.509995 C 206.256668 136.736664 205.453339 134.843338 205.100006 132.830002 C 204.955917 132.001404 205.332535 131.168854 206.050003 130.729996 C 207.256668 129.983337 208.646667 129.263336 210.220001 128.570007 C 212.850006 127.419998 213.380005 125.639999 211.449997 123.529999 C 206.139999 117.720001 200.119995 110.730011 198.690002 103.380005 C 198.533218 102.58728 197.843399 102.014526 197.039993 102.01001 C 189.633331 101.963333 183.036667 103.426666 177.25 106.399994 C 177.088104 106.481354 176.887665 106.426422 176.790512 106.274109 C 176.693344 106.121796 176.732376 105.923706 176.880005 105.820007 C 182.753342 101.32666 189.573334 98.936676 197.339996 98.649994 C 197.91864 98.628845 198.379761 98.158936 198.389999 97.580002 C 198.509995 89.01001 194.229996 78.779999 189.75 71.959991 C 189.632843 71.78595 189.651535 71.554016 189.795029 71.40097 C 189.938522 71.247894 190.168762 71.21431 190.350006 71.320007 Z"/>
        <path id="path37" fill="#126ceb" stroke="none" d="M 61.790001 106.080002 C 61.866051 106.187485 61.860146 106.332703 61.775627 106.433655 C 61.691101 106.534607 61.549179 106.565964 61.43 106.51001 C 54.869999 103.176666 47.866665 101.67334 40.419998 102 C 40.212269 102.013153 40.043785 102.173218 40.02 102.380005 C 39.633335 106.23999 38.306667 109.800003 36.040001 113.059998 C 33.333332 116.946655 30.396667 120.653336 27.23 124.179993 C 26.59 124.886658 26.343334 125.850006 26.490002 127.070007 C 26.53944 127.470383 26.807331 127.814819 27.189999 127.970001 C 28.959999 128.690002 32.080002 130.009995 33.18 131.289993 C 33.915218 132.057068 34.080105 133.207275 33.59 134.149994 L 30.919998 139.270004 C 30.7826 139.529968 30.767799 139.837616 30.879528 140.11116 C 30.991257 140.384705 31.218193 140.59642 31.5 140.690002 L 41.060001 143.809998 C 41.241714 143.866425 41.343868 144.061859 41.290001 144.25 L 41.189999 144.529999 C 41.164452 144.620636 41.084042 144.684967 40.990002 144.690002 L 33.720001 145.050003 C 32.938938 145.090027 32.273315 145.634293 32.080147 146.390854 C 31.886982 147.14743 32.211647 147.938599 32.880001 148.339996 C 38.34 151.660004 31.810001 156.970001 35.139999 160.839996 C 36.419998 162.319992 37.919998 163.119995 39.639999 163.240005 C 49.139999 163.869995 54.02 163.399994 60.5 167.720001 C 62.919998 169.339996 64.449997 170.399994 65.089996 170.899994 C 69.419998 174.300003 66.68 180.649994 61.190002 179.259995 C 59.316666 178.779999 58.169998 177.443329 57.75 175.25 C 57.410004 173.410004 58.75 172.139999 60.080002 170.970001 C 60.217796 170.848511 60.287277 170.666962 60.265175 170.48616 C 60.24308 170.305359 60.132324 170.1492 59.970001 170.070007 C 56.610001 168.369995 52.860001 167.240005 48.77 167.160004 C 40.439999 166.990005 27.529999 167.649994 30.450001 154.720001 C 30.57 154.186661 30.666668 153.600006 30.740002 152.960007 C 30.778812 152.601166 30.678467 152.242798 30.459999 151.960007 L 28.049999 148.759995 C 27.571259 148.11618 27.520153 147.251343 27.919998 146.559998 L 28.900002 144.869995 C 29.059311 144.594223 29.102451 144.266418 29.01992 143.958801 C 28.937393 143.651184 28.735962 143.389008 28.459999 143.229996 C 24.759998 141.080002 27.630001 137.240005 29.169998 134.610001 C 29.358562 134.293625 29.409676 133.913925 29.311489 133.558945 C 29.213303 133.203964 28.974342 132.90451 28.650002 132.729996 C 28.029999 132.396667 26.553333 131.589996 24.220001 130.309998 C 22.086668 129.149994 21.143333 127.563339 21.389999 125.550003 C 21.442423 125.130951 21.608137 124.730469 21.870001 124.389999 C 27.73 116.800003 31.779999 112.5 34.91 106.070007 C 35.219265 105.431992 35.376701 104.730347 35.369999 104.019989 C 35.356667 102.506668 35.549999 99.880005 35.950001 96.139999 C 36.880001 87.330002 40.939999 77.269989 47.91 71.480011 C 48.077427 71.338898 48.323128 71.342377 48.4865 71.488144 C 48.649876 71.633926 48.681198 71.877655 48.560001 72.059998 C 43.669998 79.639999 40.189999 88.929993 40.259998 98.130005 C 40.259804 98.426117 40.49408 98.669235 40.790001 98.679993 C 46.959999 98.850006 57.919998 100.860001 61.790001 106.080002 Z"/>
        <path id="path38" fill="#126ceb" stroke="none" d="M 86.089996 77.570007 C 86.089996 80.182312 83.972305 82.300003 81.360001 82.300003 C 78.747696 82.300003 76.629997 80.182312 76.629997 77.570007 C 76.629997 74.957703 78.747696 72.839996 81.360001 72.839996 C 83.972305 72.839996 86.089996 74.957703 86.089996 77.570007 Z"/>
        <path id="path39" fill="#126ceb" stroke="none" d="M 105.290001 77.570007 C 105.290001 80.254105 103.114105 82.429993 100.43 82.429993 C 97.745895 82.429993 95.57 80.254105 95.57 77.570007 C 95.57 74.885895 97.745895 72.709991 100.43 72.709991 C 103.114105 72.709991 105.290001 74.885895 105.290001 77.570007 Z"/>
        <path id="path40" fill="#126ceb" stroke="none" d="M 160.759995 77.5 C 160.759995 80.123352 158.633347 82.25 156.009995 82.25 C 153.386642 82.25 151.259995 80.123352 151.259995 77.5 C 151.259995 74.876648 153.386642 72.75 156.009995 72.75 C 158.633347 72.75 160.759995 74.876648 160.759995 77.5 Z"/>
        <path id="path41" fill="#126ceb" stroke="none" d="M 179.610001 77.529999 C 179.610001 80.131256 177.501266 82.23999 174.899994 82.23999 C 172.298737 82.23999 170.190002 80.131256 170.190002 77.529999 C 170.190002 74.928741 172.298737 72.820007 174.899994 72.820007 C 177.501266 72.820007 179.610001 74.928741 179.610001 77.529999 Z"/>
        <path id="path42" fill="#126ceb" stroke="none" d="M 63.533592 72.985306 C 66.023064 73.518997 67.596329 76.026672 67.047585 78.586334 C 66.498833 81.146011 64.035873 82.788391 61.54641 82.2547 C 59.056938 81.720993 57.483673 79.213333 58.032417 76.653656 C 58.581161 74.093994 61.044121 72.451614 63.533592 72.985306 Z"/>
        <path id="path43" fill="#126ceb" stroke="none" d="M 141.789993 77.580002 C 141.789993 80.214401 139.654404 82.350006 137.020004 82.350006 C 134.385605 82.350006 132.25 80.214401 132.25 77.580002 C 132.25 74.945602 134.385605 72.809998 137.020004 72.809998 C 139.654404 72.809998 141.789993 74.945602 141.789993 77.580002 Z"/>
        <path id="path44" fill="#126ceb" stroke="none" d="M 76.43 89.389999 C 76.43 91.991272 74.321259 94.100006 71.720001 94.100006 C 69.118736 94.100006 67.010002 91.991272 67.010002 89.389999 C 67.010002 86.788742 69.118736 84.679993 71.720001 84.679993 C 74.321259 84.679993 76.43 86.788742 76.43 89.389999 Z"/>
        <path id="path45" fill="#126ceb" stroke="none" d="M 95.470001 89.399994 C 95.470001 91.990219 93.370216 94.089996 90.779999 94.089996 C 88.189781 94.089996 86.089996 91.990219 86.089996 89.399994 C 86.089996 86.809784 88.189781 84.709991 90.779999 84.709991 C 93.370216 84.709991 95.470001 86.809784 95.470001 89.399994 Z"/>
        <path id="path46" fill="#126ceb" stroke="none" d="M 114.139999 89.429993 C 114.139999 92.064392 112.004395 94.199997 109.370003 94.199997 C 106.735603 94.199997 104.599998 92.064392 104.599998 89.429993 C 104.599998 86.795593 106.735603 84.660004 109.370003 84.660004 C 112.004395 84.660004 114.139999 86.795593 114.139999 89.429993 Z"/>
        <path id="path47" fill="#126ceb" stroke="none" d="M 132.600006 89.5 C 132.600006 92.112305 130.4823 94.230011 127.869995 94.230011 C 125.25769 94.230011 123.139999 92.112305 123.139999 89.5 C 123.139999 86.887695 125.25769 84.769989 127.869995 84.769989 C 130.4823 84.769989 132.600006 86.887695 132.600006 89.5 Z"/>
        <path id="path48" fill="#126ceb" stroke="none" d="M 147.504089 84.702957 C 150.0112 85.11351 151.697052 87.562714 151.269531 90.17337 C 150.842026 92.784042 148.463028 94.567596 145.955917 94.157043 C 143.448807 93.746475 141.762955 91.297287 142.19046 88.686615 C 142.617981 86.075958 144.996964 84.292404 147.504089 84.702957 Z"/>
        <path id="path49" fill="#126ceb" stroke="none" d="M 170.199997 89.339996 C 170.199997 91.930206 168.10022 94.029999 165.509995 94.029999 C 162.919785 94.029999 160.820007 91.930206 160.820007 89.339996 C 160.820007 86.749786 162.919785 84.649994 165.509995 84.649994 C 168.10022 84.649994 170.199997 86.749786 170.199997 89.339996 Z"/>
        <path id="path50" fill="#126ceb" stroke="none" d="M 78.868675 97.141144 C 81.138496 95.893311 84.026802 96.788483 85.319878 99.140579 C 86.612953 101.492676 85.821144 104.411011 83.551323 105.658844 C 81.281502 106.906693 78.393196 106.01152 77.100121 103.659424 C 75.807045 101.307327 76.598854 98.388992 78.868675 97.141144 Z"/>
        <path id="path51" fill="#126ceb" stroke="none" d="M 104.839996 101.48999 C 104.839996 104.140961 102.690964 106.290009 100.040001 106.290009 C 97.38903 106.290009 95.239998 104.140961 95.239998 101.48999 C 95.239998 98.839035 97.38903 96.690002 100.040001 96.690002 C 102.690964 96.690002 104.839996 98.839035 104.839996 101.48999 Z"/>
        <path id="path52" fill="#126ceb" stroke="none" d="M 123.389999 101.480011 C 123.389999 104.147537 121.227539 106.309998 118.559998 106.309998 C 115.892464 106.309998 113.730003 104.147537 113.730003 101.480011 C 113.730003 98.812469 115.892464 96.649994 118.559998 96.649994 C 121.227539 96.649994 123.389999 98.812469 123.389999 101.480011 Z"/>
        <path id="path53" fill="#126ceb" stroke="none" d="M 142.130005 101.429993 C 142.130005 104.064392 139.9944 106.199997 137.360001 106.199997 C 134.725601 106.199997 132.589996 104.064392 132.589996 101.429993 C 132.589996 98.795593 134.725601 96.660004 137.360001 96.660004 C 139.9944 96.660004 142.130005 98.795593 142.130005 101.429993 Z"/>
        <path id="path54" fill="#126ceb" stroke="none" d="M 161.100006 101.48999 C 161.100006 104.146484 158.946487 106.300003 156.289993 106.300003 C 153.633514 106.300003 151.479996 104.146484 151.479996 101.48999 C 151.479996 98.833511 153.633514 96.679993 156.289993 96.679993 C 158.946487 96.679993 161.100006 98.833511 161.100006 101.48999 Z"/>
        <path id="path55" fill="#126ceb" stroke="none" d="M 95.389999 113.639999 C 95.389999 116.285446 93.245445 118.429993 90.599998 118.429993 C 87.954559 118.429993 85.809998 116.285446 85.809998 113.639999 C 85.809998 110.994553 87.954559 108.850006 90.599998 108.850006 C 93.245445 108.850006 95.389999 110.994553 95.389999 113.639999 Z"/>
        <path id="path56" fill="#126ceb" stroke="none" d="M 132.779999 113.610001 C 132.779999 116.272003 130.622009 118.429993 127.960007 118.429993 C 125.297989 118.429993 123.139999 116.272003 123.139999 113.610001 C 123.139999 110.947998 125.297989 108.790009 127.960007 108.790009 C 130.622009 108.790009 132.779999 110.947998 132.779999 113.610001 Z"/>
        <path id="path57" fill="#126ceb" stroke="none" d="M 113.980003 113.639999 C 113.980003 116.29097 111.830963 118.440002 109.18 118.440002 C 106.52903 118.440002 104.379997 116.29097 104.379997 113.639999 C 104.379997 110.989044 106.52903 108.839996 109.18 108.839996 C 111.830963 108.839996 113.980003 110.989044 113.980003 113.639999 Z"/>
        <path id="path58" fill="#126ceb" stroke="none" d="M 151.619995 113.679993 C 151.619995 116.275742 149.515732 118.380005 146.919998 118.380005 C 144.324265 118.380005 142.220001 116.275742 142.220001 113.679993 C 142.220001 111.084259 144.324265 108.980011 146.919998 108.980011 C 149.515732 108.980011 151.619995 111.084259 151.619995 113.679993 Z"/>
        <path id="path59" fill="#126ceb" stroke="none" d="M 56.910004 112.869995 L 43.48 113.540009 C 43.384365 113.547821 43.2967 113.491669 43.262604 113.400742 C 43.228508 113.309814 43.255688 113.204681 43.330002 113.139999 L 45.220001 111.589996 C 45.703587 111.189667 46.317638 110.9767 46.950001 110.98999 C 50.549999 111.096664 53.889999 111.486664 56.970001 112.160004 C 57.144196 112.2005 57.262245 112.362747 57.247185 112.540955 C 57.232124 112.719177 57.088524 112.859299 56.910004 112.869995 Z"/>
        <path id="path60" fill="#126ceb" stroke="none" d="M 182.300003 112.730011 C 182.128983 112.712631 181.995895 112.573654 181.985947 112.402039 C 181.975998 112.230438 182.092133 112.077011 182.259995 112.040009 C 185.266663 111.446671 188.516663 111.133331 192.009995 111.100006 C 192.625366 111.10051 193.218094 111.320557 193.679993 111.720001 L 195.479996 113.26001 C 195.553482 113.320129 195.580093 113.420624 195.546005 113.509232 C 195.511932 113.597855 195.424835 113.654602 195.330002 113.649994 L 182.300003 112.730011 Z"/>
        <path id="path61" fill="#126ceb" stroke="none" d="M 104.779999 125.980011 C 104.779999 128.686188 102.586197 130.880005 99.879997 130.880005 C 97.173805 130.880005 94.980003 128.686188 94.980003 125.980011 C 94.980003 123.273804 97.173805 121.080002 99.879997 121.080002 C 102.586197 121.080002 104.779999 123.273804 104.779999 125.980011 Z"/>
        <path id="path62" fill="#126ceb" stroke="none" d="M 123.5 126.020004 C 123.5 128.709625 121.319626 130.889999 118.629997 130.889999 C 115.940376 130.889999 113.760002 128.709625 113.760002 126.020004 C 113.760002 123.330383 115.940376 121.149994 118.629997 121.149994 C 121.319626 121.149994 123.5 123.330383 123.5 126.020004 Z"/>
        <path id="path63" fill="#126ceb" stroke="none" d="M 142.686142 125.512085 C 142.948593 128.188873 140.933472 130.577286 138.185226 130.846756 C 135.436981 131.116226 132.996323 129.164703 132.733856 126.487915 C 132.471405 123.811127 134.486526 121.422714 137.234772 121.153244 C 139.983017 120.883774 142.423676 122.835297 142.686142 125.512085 Z"/>
        <path id="path64" fill="#126ceb" stroke="none" d="M 114.160004 138.559998 C 114.160004 141.222015 112.002014 143.380005 109.339996 143.380005 C 106.677986 143.380005 104.519997 141.222015 104.519997 138.559998 C 104.519997 135.897995 106.677986 133.740005 109.339996 133.740005 C 112.002014 133.740005 114.160004 135.897995 114.160004 138.559998 Z"/>
        <path id="path65" fill="#126ceb" stroke="none" d="M 133.009995 138.550003 C 133.009995 141.267242 130.807236 143.470001 128.089996 143.470001 C 125.372757 143.470001 123.169998 141.267242 123.169998 138.550003 C 123.169998 135.832764 125.372757 133.630005 128.089996 133.630005 C 130.807236 133.630005 133.009995 135.832764 133.009995 138.550003 Z"/>
        <path id="path66" fill="#126ceb" stroke="none" d="M 95.110001 138.809998 C 95.110001 141.405731 93.005737 143.509995 90.410004 143.509995 C 87.814262 143.509995 85.709999 141.405731 85.709999 138.809998 C 85.709999 136.214264 87.814262 134.110001 90.410004 134.110001 C 93.005737 134.110001 95.110001 136.214264 95.110001 138.809998 Z"/>
        <path id="path67" fill="#126ceb" stroke="none" d="M 151.789993 138.710007 C 151.789993 141.327835 149.667831 143.449997 147.050003 143.449997 C 144.432175 143.449997 142.309998 141.327835 142.309998 138.710007 C 142.309998 136.092163 144.432175 133.970001 147.050003 133.970001 C 149.667831 133.970001 151.789993 136.092163 151.789993 138.710007 Z"/>
        <path id="path68" fill="#126ceb" stroke="none" d="M 104.769997 150.75 C 104.769997 153.434097 102.594101 155.610001 99.910004 155.610001 C 97.225899 155.610001 95.050003 153.434097 95.050003 150.75 C 95.050003 148.065903 97.225899 145.889999 99.910004 145.889999 C 102.594101 145.889999 104.769997 148.065903 104.769997 150.75 Z"/>
        <path id="path69" fill="#126ceb" stroke="none" d="M 123.389999 150.779999 C 123.389999 153.419922 121.249924 155.559998 118.610001 155.559998 C 115.970078 155.559998 113.830002 153.419922 113.830002 150.779999 C 113.830002 148.140076 115.970078 146 118.610001 146 C 121.249924 146 123.389999 148.140076 123.389999 150.779999 Z"/>
        <path id="path70" fill="#126ceb" stroke="none" d="M 142.330002 150.729996 C 142.330002 153.369919 140.189926 155.509995 137.550003 155.509995 C 134.91008 155.509995 132.770004 153.369919 132.770004 150.729996 C 132.770004 148.090073 134.91008 145.949997 137.550003 145.949997 C 140.189926 145.949997 142.330002 148.090073 142.330002 150.729996 Z"/>
        <path id="path71" fill="#126ceb" stroke="none" d="M 161.119995 150.820007 C 161.119995 153.465439 158.975449 155.610001 156.330002 155.610001 C 153.684555 155.610001 151.539993 153.465439 151.539993 150.820007 C 151.539993 148.174561 153.684555 146.029999 156.330002 146.029999 C 158.975449 146.029999 161.119995 148.174561 161.119995 150.820007 Z"/>
        <path id="path72" fill="#126ceb" stroke="none" d="M 85.839996 150.899994 C 85.839996 153.479172 83.749168 155.570007 81.169998 155.570007 C 78.590828 155.570007 76.5 153.479172 76.5 150.899994 C 76.5 148.320831 78.590828 146.229996 81.169998 146.229996 C 83.749168 146.229996 85.839996 148.320831 85.839996 150.899994 Z"/>
        <path id="path73" fill="#126ceb" stroke="none" d="M 95.550003 162.850006 C 95.550003 165.506485 93.396492 167.660004 90.739998 167.660004 C 88.083511 167.660004 85.93 165.506485 85.93 162.850006 C 85.93 160.193512 88.083511 158.039993 90.739998 158.039993 C 93.396492 158.039993 95.550003 160.193512 95.550003 162.850006 Z"/>
        <path id="path74" fill="#126ceb" stroke="none" d="M 76.510002 162.929993 C 76.510002 165.492599 74.432602 167.570007 71.870003 167.570007 C 69.307396 167.570007 67.230003 165.492599 67.230003 162.929993 C 67.230003 160.367401 69.307396 158.289993 71.870003 158.289993 C 74.432602 158.289993 76.510002 160.367401 76.510002 162.929993 Z"/>
        <path id="path75" fill="#126ceb" stroke="none" d="M 114.089996 162.940002 C 114.089996 165.607529 111.927536 167.770004 109.260002 167.770004 C 106.592468 167.770004 104.43 165.607529 104.43 162.940002 C 104.43 160.272461 106.592468 158.110001 109.260002 158.110001 C 111.927536 158.110001 114.089996 160.272461 114.089996 162.940002 Z"/>
        <path id="path76" fill="#126ceb" stroke="none" d="M 132.809998 162.869995 C 132.809998 165.476791 130.696777 167.589996 128.089996 167.589996 C 125.483215 167.589996 123.369995 165.476791 123.369995 162.869995 C 123.369995 160.263214 125.483215 158.149994 128.089996 158.149994 C 130.696777 158.149994 132.809998 160.263214 132.809998 162.869995 Z"/>
        <path id="path77" fill="#126ceb" stroke="none" d="M 151.729996 162.899994 C 151.729996 165.545441 149.585449 167.690002 146.940002 167.690002 C 144.294556 167.690002 142.149994 165.545441 142.149994 162.899994 C 142.149994 160.254562 144.294556 158.110001 146.940002 158.110001 C 149.585449 158.110001 151.729996 160.254562 151.729996 162.899994 Z"/>
        <path id="path78" fill="#126ceb" stroke="none" d="M 170.449997 162.910004 C 170.449997 165.544403 168.314392 167.679993 165.679993 167.679993 C 163.045609 167.679993 160.910004 165.544403 160.910004 162.910004 C 160.910004 160.275604 163.045609 158.139999 165.679993 158.139999 C 168.314392 158.139999 170.449997 160.275604 170.449997 162.910004 Z"/>
        <path id="path79" fill="#126ceb" stroke="none" d="M 86.199997 174.740005 C 86.199997 177.363358 84.073349 179.490005 81.449997 179.490005 C 78.826645 179.490005 76.699997 177.363358 76.699997 174.740005 C 76.699997 172.116653 78.826645 169.990005 81.449997 169.990005 C 84.073349 169.990005 86.199997 172.116653 86.199997 174.740005 Z"/>
        <path id="path80" fill="#126ceb" stroke="none" d="M 105.080002 174.830002 C 105.080002 177.453354 102.953354 179.580002 100.330002 179.580002 C 97.70665 179.580002 95.580002 177.453354 95.580002 174.830002 C 95.580002 172.20665 97.70665 170.080002 100.330002 170.080002 C 102.953354 170.080002 105.080002 172.20665 105.080002 174.830002 Z"/>
        <path id="path81" fill="#126ceb" stroke="none" d="M 160.940002 174.669998 C 160.940002 177.282303 158.822311 179.399994 156.210007 179.399994 C 153.597687 179.399994 151.479996 177.282303 151.479996 174.669998 C 151.479996 172.057693 153.597687 169.940002 156.210007 169.940002 C 158.822311 169.940002 160.940002 172.057693 160.940002 174.669998 Z"/>
        <path id="path82" fill="#126ceb" stroke="none" d="M 132.712723 173.864349 C 133.242279 171.35141 135.765656 169.755569 138.348846 170.299927 C 140.932037 170.844299 142.596832 173.322723 142.067276 175.835663 C 141.53772 178.348587 139.014343 179.944427 136.431152 179.40007 C 133.847961 178.855713 132.183167 176.377274 132.712723 173.864349 Z"/>
        <path id="path83" fill="#126ceb" stroke="none" d="M 95.809998 186.550003 C 95.809998 189.162308 93.692307 191.279999 91.080002 191.279999 C 88.46769 191.279999 86.349998 189.162308 86.349998 186.550003 C 86.349998 183.937698 88.46769 181.820007 91.080002 181.820007 C 93.692307 181.820007 95.809998 183.937698 95.809998 186.550003 Z"/>
        <path id="path84" fill="#126ceb" stroke="none" d="M 57.919998 186.740005 C 57.919998 189.302597 55.842602 191.380005 53.279999 191.380005 C 50.7174 191.380005 48.639999 189.302597 48.639999 186.740005 C 48.639999 184.177399 50.7174 182.100006 53.279999 182.100006 C 55.842602 182.100006 57.919998 184.177399 57.919998 186.740005 Z"/>
        <path id="path85" fill="#126ceb" stroke="none" d="M 67.20546 186.001648 C 67.557678 183.463348 69.967407 181.700439 72.587746 182.064026 C 75.208076 182.427643 77.046753 184.780075 76.694542 187.318359 C 76.342323 189.856644 73.932594 191.619568 71.312256 191.255966 C 68.691917 190.892365 66.853241 188.539917 67.20546 186.001648 Z"/>
        <path id="path86" fill="#126ceb" stroke="none" d="M 151.330002 186.529999 C 151.330002 189.125732 149.225739 191.229996 146.630005 191.229996 C 144.034256 191.229996 141.929993 189.125732 141.929993 186.529999 C 141.929993 183.934265 144.034256 181.830002 146.630005 181.830002 C 149.225739 181.830002 151.330002 183.934265 151.330002 186.529999 Z"/>
        <path id="path87" fill="#126ceb" stroke="none" d="M 170.179993 186.580002 C 170.179993 189.159164 168.089172 191.25 165.509995 191.25 C 162.930832 191.25 160.839996 189.159164 160.839996 186.580002 C 160.839996 184.000824 162.930832 181.910004 165.509995 181.910004 C 168.089172 181.910004 170.179993 184.000824 170.179993 186.580002 Z"/>
        <path id="path88" fill="#126ceb" stroke="none" d="M 179.798203 185.887833 C 180.233856 183.312103 182.736862 181.587692 185.388809 182.03624 C 188.040771 182.484787 189.837448 184.936432 189.401794 187.512161 C 188.966156 190.087891 186.46315 191.812317 183.811188 191.36377 C 181.159225 190.915222 179.362549 188.463562 179.798203 185.887833 Z"/>
        <path id="path89" fill="#126ceb" stroke="none" d="M 160.75 198.440002 C 160.75 201.102005 158.59201 203.259995 155.929993 203.259995 C 153.26799 203.259995 151.110001 201.102005 151.110001 198.440002 C 151.110001 195.777985 153.26799 193.619995 155.929993 193.619995 C 158.59201 193.619995 160.75 195.777985 160.75 198.440002 Z"/>
        <path id="path90" fill="#126ceb" stroke="none" d="M 48.630001 198.529999 C 48.630001 201.158875 46.498875 203.289993 43.869999 203.289993 C 41.241123 203.289993 39.110001 201.158875 39.110001 198.529999 C 39.110001 195.901123 41.241123 193.770004 43.869999 193.770004 C 46.498875 193.770004 48.630001 195.901123 48.630001 198.529999 Z"/>
        <path id="path91" fill="#126ceb" stroke="none" d="M 67.650002 198.5 C 67.650002 201.123352 65.523354 203.25 62.900002 203.25 C 60.276649 203.25 58.150002 201.123352 58.150002 198.5 C 58.150002 195.876648 60.276649 193.75 62.900002 193.75 C 65.523354 193.75 67.650002 195.876648 67.650002 198.5 Z"/>
        <path id="path92" fill="#126ceb" stroke="none" d="M 83.755951 194.045868 C 86.119843 195.118179 87.133591 197.977158 86.02021 200.431595 C 84.906837 202.886017 82.087944 204.006439 79.724052 202.934143 C 77.360153 201.861816 76.346405 199.002838 77.459785 196.548401 C 78.573166 194.093979 81.392052 192.973557 83.755951 194.045868 Z"/>
        <path id="path93" fill="#126ceb" stroke="none" d="M 179.539993 198.490005 C 179.539993 201.124405 177.404404 203.259995 174.770004 203.259995 C 172.135605 203.259995 170 201.124405 170 198.490005 C 170 195.855606 172.135605 193.720001 174.770004 193.720001 C 177.404404 193.720001 179.539993 195.855606 179.539993 198.490005 Z"/>
        <path id="path94" fill="#126ceb" stroke="none" d="M 198.470001 198.509995 C 198.470001 201.127823 196.347824 203.25 193.729996 203.25 C 191.112167 203.25 188.990005 201.127823 188.990005 198.509995 C 188.990005 195.892166 191.112167 193.770004 193.729996 193.770004 C 196.347824 193.770004 198.470001 195.892166 198.470001 198.509995 Z"/>
        <path id="path95" fill="#126ceb" stroke="none" d="M 35.550095 205.685883 C 38.061039 206.169403 39.693577 208.654068 39.196468 211.235504 C 38.69936 213.816956 36.260853 215.517654 33.749905 215.034119 C 31.23896 214.550598 29.606422 212.065933 30.103531 209.484497 C 30.600639 206.903046 33.03915 205.202347 35.550095 205.685883 Z"/>
        <path id="path96" fill="#126ceb" stroke="none" d="M 207.880005 210.229996 C 207.880005 212.869919 205.739914 215.009995 203.100006 215.009995 C 200.460083 215.009995 198.320007 212.869919 198.320007 210.229996 C 198.320007 207.590073 200.460083 205.449997 203.100006 205.449997 C 205.739914 205.449997 207.880005 207.590073 207.880005 210.229996 Z"/>
        <path id="path97" fill="#126ceb" stroke="none" d="M 58.43 210.479996 C 58.43 213.114395 56.294395 215.25 53.66 215.25 C 51.0256 215.25 48.889999 213.114395 48.889999 210.479996 C 48.889999 207.845596 51.0256 205.710007 53.66 205.710007 C 56.294395 205.710007 58.43 207.845596 58.43 210.479996 Z"/>
        <path id="path98" fill="#126ceb" stroke="none" d="M 73.423897 205.790955 C 75.942612 206.162888 77.673775 208.568237 77.290543 211.163452 C 76.907318 213.758652 74.554825 215.560974 72.036102 215.189041 C 69.517387 214.817108 67.786224 212.411774 68.169456 209.816559 C 68.552681 207.221344 70.905174 205.419022 73.423897 205.790955 Z"/>
        <path id="path99" fill="#126ceb" stroke="none" d="M 169.940002 210.449997 C 169.940002 213.078873 167.808868 215.210007 165.179993 215.210007 C 162.551132 215.210007 160.419998 213.078873 160.419998 210.449997 C 160.419998 207.821121 162.551132 205.690002 165.179993 205.690002 C 167.808868 205.690002 169.940002 207.821121 169.940002 210.449997 Z"/>
        <path id="path100" fill="#126ceb" stroke="none" d="M 188.649994 210.369995 C 188.649994 212.954697 186.554688 215.050003 183.970001 215.050003 C 181.385315 215.050003 179.289993 212.954697 179.289993 210.369995 C 179.289993 207.785309 181.385315 205.690002 183.970001 205.690002 C 186.554688 205.690002 188.649994 207.785309 188.649994 210.369995 Z"/>
        <path id="path101" fill="#126ceb" stroke="none" d="M 48.959999 222.020004 C 48.959999 224.626785 46.846783 226.740005 44.240002 226.740005 C 41.633217 226.740005 39.52 224.626785 39.52 222.020004 C 39.52 219.413223 41.633217 217.300003 44.240002 217.300003 C 46.846783 217.300003 48.959999 219.413223 48.959999 222.020004 Z"/>
        <path id="path102" fill="#126ceb" stroke="none" d="M 178.960007 222.029999 C 178.960007 224.614685 176.864685 226.710007 174.279999 226.710007 C 171.695313 226.710007 169.600006 224.614685 169.600006 222.029999 C 169.600006 219.445313 171.695313 217.350006 174.279999 217.350006 C 176.864685 217.350006 178.960007 219.445313 178.960007 222.029999 Z"/>
        <path id="path103" fill="#126ceb" stroke="none" d="M 197.990005 222.039993 C 197.990005 224.641266 195.881256 226.75 193.279999 226.75 C 190.678741 226.75 188.570007 224.641266 188.570007 222.039993 C 188.570007 219.438736 190.678741 217.330002 193.279999 217.330002 C 195.881256 217.330002 197.990005 219.438736 197.990005 222.039993 Z"/>
        <path id="path104" fill="#126ceb" stroke="none" d="M 217.300003 222.110001 C 217.300003 224.755447 215.155441 226.899994 212.509995 226.899994 C 209.864563 226.899994 207.720001 224.755447 207.720001 222.110001 C 207.720001 219.464554 209.864563 217.320007 212.509995 217.320007 C 215.155441 217.320007 217.300003 219.464554 217.300003 222.110001 Z"/>
        <path id="path105" fill="#126ceb" stroke="none" d="M 29.98 222.110001 C 29.98 224.733353 27.853352 226.860001 25.23 226.860001 C 22.606647 226.860001 20.48 224.733353 20.48 222.110001 C 20.48 219.486649 22.606647 217.360001 25.23 217.360001 C 27.853352 217.360001 29.98 219.486649 29.98 222.110001 Z"/>
        <path id="path106" fill="#126ceb" stroke="none" d="M 68 222.130005 C 68 224.747833 65.877831 226.869995 63.260002 226.869995 C 60.642174 226.869995 58.519997 224.747833 58.519997 222.130005 C 58.519997 219.512177 60.642174 217.389999 63.260002 217.389999 C 65.877831 217.389999 68 219.512177 68 222.130005 Z"/>
        <path id="path107" fill="#126ceb" stroke="none" d="M 39.639999 233.779999 C 39.639999 236.381256 37.531261 238.490005 34.93 238.490005 C 32.328739 238.490005 30.220001 236.381256 30.220001 233.779999 C 30.220001 231.178741 32.328739 229.070007 34.93 229.070007 C 37.531261 229.070007 39.639999 231.178741 39.639999 233.779999 Z"/>
        <path id="path108" fill="#126ceb" stroke="none" d="M 57.248497 230.419464 C 59.009224 232.281387 58.888161 235.255035 56.978088 237.06131 C 55.068012 238.867569 52.092236 238.822464 50.331505 236.960541 C 48.570774 235.098618 48.691841 232.124969 50.601913 230.318695 C 52.51199 228.512421 55.487762 228.557541 57.248497 230.419464 Z"/>
        <path id="path109" fill="#126ceb" stroke="none" d="M 188.25 233.720001 C 188.25 236.326782 186.13678 238.440002 183.529999 238.440002 C 180.923218 238.440002 178.809998 236.326782 178.809998 233.720001 C 178.809998 231.11322 180.923218 229 183.529999 229 C 186.13678 229 188.25 231.11322 188.25 233.720001 Z"/>
        <path id="path110" fill="#126ceb" stroke="none" d="M 202.327988 229.124695 L 203.387924 229.135803 C 205.668747 229.159683 207.498337 231.028015 207.474457 233.308823 L 207.465027 234.208771 C 207.441147 236.489578 205.572815 238.319183 203.292007 238.295303 L 202.232071 238.284195 C 199.951263 238.260315 198.121658 236.391983 198.145538 234.111176 L 198.154968 233.211227 C 198.178848 230.93042 200.04718 229.100815 202.327988 229.124695 Z"/>
        <path id="path111" fill="#126ceb" stroke="none" d="M 226.520004 233.789993 C 226.520004 236.39679 224.406784 238.509995 221.800003 238.509995 C 219.193222 238.509995 217.080002 236.39679 217.080002 233.789993 C 217.080002 231.183212 219.193222 229.070007 221.800003 229.070007 C 224.406784 229.070007 226.520004 231.183212 226.520004 233.789993 Z"/>
        <path id="path112" fill="#126ceb" stroke="none" d="M 20.51 233.779999 C 20.51 236.370209 18.410215 238.470001 15.82 238.470001 C 13.229784 238.470001 11.129999 236.370209 11.129999 233.779999 C 11.129999 231.189789 13.229784 229.089996 15.82 229.089996 C 18.410215 229.089996 20.51 231.189789 20.51 233.779999 Z"/>
        <path id="path113" fill="#126ceb" stroke="none" d="M 197.729996 245.639999 C 197.729996 248.274399 195.594391 250.410004 192.960007 250.410004 C 190.325607 250.410004 188.190002 248.274399 188.190002 245.639999 C 188.190002 243.0056 190.325607 240.869995 192.960007 240.869995 C 195.594391 240.869995 197.729996 243.0056 197.729996 245.639999 Z"/>
        <path id="path114" fill="#126ceb" stroke="none" d="M 5.785768 240.981491 C 8.309952 240.572662 10.698368 242.35379 11.120441 244.959747 C 11.542515 247.565704 9.838417 250.009689 7.314232 250.418518 C 4.790048 250.827347 2.401632 249.046219 1.979559 246.440247 C 1.557486 243.83429 3.261583 241.39032 5.785768 240.981491 Z"/>
        <path id="path115" fill="#126ceb" stroke="none" d="M 30.209999 245.720001 C 30.209999 248.33783 28.08783 250.460007 25.470001 250.460007 C 22.852171 250.460007 20.73 248.33783 20.73 245.720001 C 20.73 243.102173 22.852171 240.979996 25.470001 240.979996 C 28.08783 240.979996 30.209999 243.102173 30.209999 245.720001 Z"/>
        <path id="path116" fill="#126ceb" stroke="none" d="M 49.259998 245.770004 C 49.259998 248.393356 47.133354 250.520004 44.509998 250.520004 C 41.886646 250.520004 39.759998 248.393356 39.759998 245.770004 C 39.759998 243.146652 41.886646 241.020004 44.509998 241.020004 C 47.133354 241.020004 49.259998 243.146652 49.259998 245.770004 Z"/>
        <path id="path117" fill="#126ceb" stroke="none" d="M 216.740005 245.710007 C 216.740005 248.333359 214.613358 250.460007 211.990005 250.460007 C 209.366653 250.460007 207.240005 248.333359 207.240005 245.710007 C 207.240005 243.086655 209.366653 240.960007 211.990005 240.960007 C 214.613358 240.960007 216.740005 243.086655 216.740005 245.710007 Z"/>
        <path id="path118" fill="#126ceb" stroke="none" d="M 232.520462 241.288864 C 234.890961 242.21785 236.033401 244.959305 235.072174 247.412079 C 234.110931 249.864853 231.410034 251.100128 229.039536 250.171143 C 226.669037 249.242142 225.526596 246.500687 226.487839 244.047913 C 227.449066 241.595154 230.149963 240.359879 232.520462 241.288864 Z"/>
    </g>
</svg>
